<svg id="next" width="21" height="13" viewBox="0 0 21 13" fill="none" xmlns="http://www.w3.org/2000/svg">
<path d="M15.0757 11.929L20.1853 6.81944C20.2634 6.74126 20.3074 6.63522 20.3074 6.52466C20.3074 6.41409 20.2634 6.30806 20.1853 6.22988L15.0757 1.12034C14.9975 1.04216 14.8915 0.998241 14.7809 0.99824C14.6704 0.998241 14.5643 1.04216 14.4862 1.12034C14.408 1.19852 14.3641 1.30456 14.3641 1.41512C14.3641 1.52569 14.408 1.63172 14.4862 1.7099L18.8833 6.10705L1.17971 6.11197C1.07025 6.11197 0.965282 6.15545 0.887887 6.23284C0.810492 6.31024 0.767012 6.41521 0.767012 6.52466C0.767013 6.63411 0.810493 6.73908 0.887887 6.81648C0.965282 6.89387 1.07025 6.93735 1.17971 6.93735L18.8833 6.94226L14.4862 11.3394C14.408 11.4176 14.3641 11.5236 14.3641 11.6342C14.3641 11.7448 14.408 11.8508 14.4862 11.929C14.5643 12.0072 14.6704 12.0511 14.7809 12.0511C14.8915 12.0511 14.9975 12.0072 15.0757 11.929Z" fill="currentColor"/>
</svg>
