<svg id="prev" width="21" height="13" viewBox="0 0 21 13" fill="none" xmlns="http://www.w3.org/2000/svg">
<path d="M6.10196 11.929L0.992421 6.81944C0.914241 6.74126 0.870319 6.63522 0.870318 6.52466C0.870319 6.41409 0.914241 6.30806 0.992422 6.22988L6.10196 1.12034C6.18014 1.04216 6.28617 0.998241 6.39674 0.99824C6.5073 0.998241 6.61334 1.04216 6.69152 1.12034C6.7697 1.19852 6.81362 1.30456 6.81362 1.41512C6.81362 1.52569 6.7697 1.63172 6.69152 1.7099L2.29437 6.10705L19.998 6.11197C20.1074 6.11197 20.2124 6.15545 20.2898 6.23284C20.3672 6.31024 20.4107 6.41521 20.4107 6.52466C20.4107 6.63411 20.3672 6.73908 20.2898 6.81648C20.2124 6.89387 20.1074 6.93735 19.998 6.93735L2.29437 6.94226L6.69152 11.3394C6.7697 11.4176 6.81362 11.5236 6.81362 11.6342C6.81362 11.7448 6.7697 11.8508 6.69152 11.929C6.61334 12.0072 6.5073 12.0511 6.39673 12.0511C6.28617 12.0511 6.18014 12.0072 6.10196 11.929Z" fill="currentColor"/>
</svg>
